Genre:Action | Adventure | Fantasy | Romanc
Language:English
IMDb:http://www.imdb.com/title/tt0473075/
Source Video:NTSC DVDR-PrisM.Thanks
Source Audio:REX.Thanks
Subtitles: ROMANA
Encoder: Tony2
...........................................
General
Complete name : Prince.Of.Persia.The.Sands.Of.Time.TELESYNC.XVID.FEEL-FREE
Format : AVI
Format/Info : Audio Video Interleave
Format profile : OpenDML
File size : 1.01 GiB
Overall bit rate : 504 Kbps
............................................
Video
Format : xvid
Codec ID : xvid
Duration : 4h 46mn
Bit rate : 450 Kbps
Width : 704 pixels
Height : 304 pixels
Display aspect ratio : 2.35:1
Frame rate : 25.000 fps
Resolution : 24 bits
Bits/(Pixel*Frame) : 0.084
Stream size : 922 MiB (89%)
.............................................
Audio
ID : 1
Format : MPEG Audio
Format version : Version 1
Format profile : Layer 3
Format settings, Mode : Joint stereo / MS Stereo
Codec ID : 55
Codec ID/Hint : MP3
Duration : 1h 47mn
Bit rate mode : Constant
Bit rate : 128 Kbps
Channel(s) : 2 channels
Sampling rate : 48.0 KHz
Resolution : 16 bits
Stream size : 98.4 MiB (10%)
Alignment : Aligned on interleaves
Interleave, duration : 24 ms (0.60 video frame)
.............................................
Plot: 
Based on the video game, which follows an adventurous prince who teams up with a rival princess to stop an angry ruler from unleashing a sandstorm that could destroy the world.
...................................................
Screenshots: 
http://postimg.com/image/17000/16562.jpg 
http://postimg.com/image/17000/16563.jpg
..........................................................